HIERARCHY
ROOT Hips
{
  OFFSET -84.1146 83.6595 -65.2804
  CHANNELS 6 Xposition Yposition Zposition Zrotation Xrotation Yrotation
  JOINT RightUpLeg
  {
    OFFSET -8.9458 -8.66707 0.101652
    CHANNELS 3 Zrotation Xrotation Yrotation
    JOINT RightLeg
    {
      OFFSET 0 -44.4227 1.3727
      CHANNELS 3 Zrotation Xrotation Yrotation
      JOINT RightFoot
      {
        OFFSET 0.253549 -42.0924 -1.46059
        CHANNELS 3 Zrotation Xrotation Yrotation
        JOINT RightToes
        {
          OFFSET 0.04 -4.41509 8.4991
          CHANNELS 3 Zrotation Xrotation Yrotation
          End Site
          {
            OFFSET -0.08 -0.137448 9.77979
          }
        }
      }
    }
  }
  JOINT Spine
  {
    OFFSET 0 11.8905 0
    CHANNELS 3 Zrotation Xrotation Yrotation
    JOINT Spine1
    {
      OFFSET 0 25.6574 0.127663
      CHANNELS 3 Zrotation Xrotation Yrotation
      JOINT HEad
      {
        OFFSET 0 8.73416 0.011341
        CHANNELS 3 Zrotation Xrotation Yrotation
        End Site
        {
          OFFSET -0.29 12.7742 2.51395
        }
      }
      JOINT LeftShoulder1
      {
        OFFSET 8.99 -0.362252 -0.22
        CHANNELS 3 Zrotation Xrotation Yrotation
        JOINT LeftArm
        {
          OFFSET 10.2827 -0.00338 0.322123
          CHANNELS 3 Zrotation Xrotation Yrotation
          JOINT LeftForeArm
          {
            OFFSET 32.7669 0.099144 -1.42434
            CHANNELS 3 Zrotation Xrotation Yrotation
            JOINT LeftHand
            {
              OFFSET 27.5643 0.085362 1.02216
              CHANNELS 3 Zrotation Xrotation Yrotation
              End Site
              {
                OFFSET 16.7443 -0.6 1.50291
              }
            }
          }
        }
      }
      JOINT RightShoulder
      {
        OFFSET -8.99 -0.362252 -0.22
        CHANNELS 3 Zrotation Xrotation Yrotation
        JOINT RightArm
        {
          OFFSET -10.2827 -0.00338 0.322123
          CHANNELS 3 Zrotation Xrotation Yrotation
          JOINT RightForeArm
          {
            OFFSET -32.8971 0.099144 -1.42434
            CHANNELS 3 Zrotation Xrotation Yrotation
            JOINT RightHand
            {
              OFFSET -27.4921 0.085362 1.02216
              CHANNELS 3 Zrotation Xrotation Yrotation
              End Site
              {
                OFFSET -16.6312 -0.6 1.50291
              }
            }
          }
        }
      }
    }
  }
  JOINT LeftUpLeg
  {
    OFFSET 8.9458 -8.66707 0.101652
    CHANNELS 3 Zrotation Xrotation Yrotation
    JOINT LeftLeg
    {
      OFFSET 0 -44.4227 1.3727
      CHANNELS 3 Zrotation Xrotation Yrotation
      JOINT LeftFoot
      {
        OFFSET -0.253549 -42.0924 -1.46059
        CHANNELS 3 Zrotation Xrotation Yrotation
        JOINT LeftToes
        {
          OFFSET -0.04 -4.41509 8.4991
          CHANNELS 3 Zrotation Xrotation Yrotation
          End Site
          {
            OFFSET 0.08 -0.047448 9.77979
          }
        }
      }
    }
  }
}
MOTION
Frames:	11
Frame Time:	0.0166667
-111.349 79.2048 -23.1817 5.74703 3.58254 163.415 -29.9567 -29.332 5.55665 11.4651 31.4278 -10.2882 26.5651 32.1831 -9.30876 -50.2883 -40.1024 -6.04103 -1.47869 16.7644 -2.49684 -7.61751 33.3499 -3.42128 10.9694 -13.0698 -26.22 -3.18055e-015 3.18055e-015 4.77083e-015 -70.9617 -20.4687 -71.7403 31.4587 12.4991 -129.622 -10.6765 6.91128 33.8463 34.5619 -4.25262 -13.971 67.3648 -55.8177 40.9732 -4.30398 26.488 136.85 -26.0216 5.22014 16.4838 42.1371 -12.3885 -8.15241 -16.2847 35.5199 12.0799 7.94582 22.2574 -2.22103 52.4574 -45.6379 32.0806 
-111.966 77.7147 -23.4845 6.66241 3.71809 165.405 -30.7493 -29.6107 5.79971 13.5935 34.0944 -13.5756 25.0354 32.9101 -8.91401 -53.3466 -40.9524 -8.54239 -1.24187 17.4996 -2.20874 -6.3299 34.7326 -3.20144 11.2757 -14.0667 -29.0358 -1.59028e-015 0 -0 -67.9007 -15.8185 -69.4369 29.9634 9.39994 -131.886 -11.3052 6.79129 33.4316 34.2611 -3.93436 -13.1871 64.2047 -56.4798 38.4748 -3.78653 26.6165 135.642 -26.6179 4.47538 19.1274 42.8541 -14.2339 -7.23044 -15.6203 38.4449 14.0617 13.0382 20.6128 -3.35919 56.0076 -46.0983 35.856 
-112.503 76.2885 -23.8153 7.38514 3.82033 167.434 -31.6172 -29.8377 6.00728 15.7863 36.6287 -16.9297 23.3486 33.3868 -8.39104 -55.7954 -41.4413 -10.7081 -0.983037 18.1208 -2.0186 -5.09435 35.8781 -3.17533 11.6552 -15.0132 -31.5905 4.77083e-015 -6.36111e-015 -0 -64.6948 -10.552 -68.5475 29.2337 6.88817 -133.359 -12.1704 6.60072 33.1357 34.2625 -3.74624 -12.6635 62.2193 -56.8804 36.7553 -3.69466 26.3183 135.692 -26.0603 4.36235 20.1273 43.459 -16.2262 -6.74772 -14.833 41.183 14.6691 16.3572 18.7547 -3.91015 57.9118 -45.6742 38.7957 
-112.954 74.9746 -24.1876 7.75803 3.92355 169.25 -32.5975 -30.1193 6.08891 17.7121 39.0657 -19.9884 21.7006 33.7162 -7.84264 -57.9578 -41.8779 -12.5271 -0.669926 18.6094 -1.86712 -4.22052 36.7588 -3.08588 12.0752 -15.8912 -33.9029 3.53113e-031 -6.36111e-015 3.18055e-015 -61.8979 -5.57435 -69.1605 28.7836 5.79651 -133.953 -12.7448 6.50987 32.6728 34.6612 -3.75726 -12.5761 62.0058 -57.3843 36.4078 -4.23747 25.8918 137.035 -24.3907 5.06575 18.6387 43.9977 -18.238 -6.86563 -14.9973 43.5478 15.4616 18.6116 17.8888 -4.29313 59.7183 -45.2204 41.5781 
-113.308 73.8367 -24.6365 7.72326 4.04787 170.511 -33.5919 -30.558 6.07785 19.0265 41.3822 -22.381 20.2535 34.0498 -7.36315 -60.213 -42.476 -14.1475 -0.357786 18.9518 -1.66355 -3.92415 37.3694 -2.68126 12.3141 -16.6477 -36.0311 -1.59028e-015 -3.18055e-015 -1.59028e-015 -60.0077 -1.50183 -70.9781 28.2134 6.54298 -133.849 -12.7107 6.6111 31.929 35.324 -3.94822 -12.901 63.4985 -58.1425 37.4087 -5.15821 25.7895 139.284 -21.7945 6.29416 15.0797 44.4387 -19.8584 -7.259 -16.3135 45.4337 17.1945 20.227 18.0611 -4.69413 62.2285 -45.2031 44.3883 
-113.542 72.9449 -25.2022 7.39436 4.22561 171.048 -34.4189 -31.0871 6.04853 19.5775 43.4495 -23.9173 19.1422 34.4981 -7.02272 -62.7195 -43.2596 -15.7126 -0.222784 19.162 -1.36132 -4.15745 37.739 -1.94513 12.1299 -17.2277 -38.0191 -0 0 7.95139e-016 -59.1503 1.6457 -73.3754 27.4437 8.66192 -133.249 -12.0543 6.88408 30.991 36.0173 -4.23315 -13.4535 65.9221 -58.9025 39.1727 -6.0108 26.2982 141.727 -18.5961 7.54885 10.7257 44.6172 -20.6996 -7.38243 -17.6987 46.943 18.9837 21.1145 18.565 -4.99601 65.0899 -45.4746 47.0141 
-113.666 72.3086 -25.91 7.0287 4.49811 170.998 -34.9588 -31.4664 5.99788 19.5433 45.1101 -24.6447 18.4247 35.0469 -6.84085 -65.3022 -44.0621 -17.2665 -0.285318 19.2617 -1.06531 -4.59683 37.9043 -1.21397 11.4974 -17.5895 -39.7663 1.32417e-031 3.18055e-015 -2.38542e-015 -59.0357 4.08638 -75.5713 26.6359 11.0861 -132.328 -11.0079 7.23512 30.045 36.3919 -4.4156 -13.8178 67.6038 -58.8343 40.1952 -6.70369 26.7238 143.665 -15.3944 8.4831 6.80106 44.451 -20.7021 -7.14312 -18.1359 48.2703 19.9336 21.3829 18.8351 -5.11195 67.4733 -45.6597 49.1591 
-113.687 71.9155 -26.7661 6.86271 4.86609 170.611 -35.1886 -31.4707 5.91962 19.3461 46.2228 -24.847 18.0157 35.6211 -6.77579 -67.5964 -44.6762 -18.7242 -0.415445 19.2499 -0.931675 -4.90443 37.8689 -0.877799 10.6473 -17.7361 -41.148 0 0 -7.95139e-016 -59.3179 5.91531 -76.9524 26.0045 12.8868 -131.375 -9.97663 7.54254 29.3135 36.1498 -4.3 -13.5894 67.043 -57.1701 38.9958 -7.38654 26.0011 144.693 -12.7925 9.0405 3.9153 44.0679 -19.9693 -7.01631 -17.6812 49.275 20.2924 21.5226 18.7302 -5.12471 68.7535 -45.5476 50.5728 
-113.578 71.7803 -27.772 6.95197 5.26843 169.991 -35.1637 -31.0832 5.91608 19.4171 46.7093 -24.9182 17.7834 36.1705 -6.77223 -69.32 -45.0072 -19.9528 -0.499411 19.1085 -0.990884 -4.97188 37.5987 -1.00505 9.8593 -17.7541 -42.2753 4.41391e-031 -6.36111e-015 3.97569e-015 -59.8665 7.21882 -77.3308 25.7274 13.7116 -130.75 -9.35258 7.71051 28.9903 35.3835 -3.92068 -12.809 64.6307 -53.9371 36.0365 -7.99789 24.1421 144.74 -11.0277 9.32714 2.12434 43.6453 -18.5238 -7.50395 -17.0419 49.5669 20.896 21.8984 18.3278 -5.13387 68.8104 -45.154 51.1825 
-113.299 71.9426 -28.9343 7.20184 5.60807 169.11 -34.9845 -30.4454 6.10574 19.9969 46.5616 -25.1212 17.713 36.6454 -6.81912 -70.3442 -45.0703 -20.8356 -0.485662 18.8208 -1.16954 -4.85595 37.0547 -1.41221 9.28792 -17.7719 -43.4061 8.82781e-032 -3.18055e-015 1.59028e-015 -60.6519 8.13093 -76.8345 25.8392 13.6497 -130.681 -9.2647 7.71938 29.104 34.5538 -3.52068 -11.9543 61.902 -50.0115 33.1262 -8.27876 22.3673 144.013 -9.98923 9.4608 1.18131 43.2402 -16.3385 -8.71024 -16.6259 48.8678 22.1205 22.369 17.7782 -5.1324 67.9399 -44.6381 51.0731 
-112.828 72.4325 -30.26 7.4947 5.81147 167.932 -34.7723 -29.705 6.50172 21.1425 45.8381 -25.4399 17.9351 36.9145 -6.95014 -70.5246 -44.9002 -21.2163 -0.383793 18.3823 -1.40635 -4.63579 36.2217 -1.94509 8.97155 -17.8544 -44.6161 -3.53113e-031 1.27222e-014 1.59028e-015 -61.5258 8.6831 -75.5924 26.1455 12.9064 -131.134 -9.48428 7.63971 29.4424 34.1459 -3.33521 -11.55 59.6962 -46.405 31.4885 -8.10281 21.89 142.868 -9.48834 9.51769 0.745344 42.7865 -13.432 -10.3941 -16.2115 47.1493 23.5784 22.4687 17.2607 -5.04963 66.5258 -44.1898 50.3323 
